<?xml version="1.0" encoding="UTF-8"?>
<svg version="1.1" xmlns="http://www.w3.org/2000/svg" width="601" height="598">
<path d="M0 0 C198.33 0 396.66 0 601 0 C601 197.34 601 394.68 601 598 C402.67 598 204.34 598 0 598 C0 400.66 0 203.32 0 0 Z " fill="#3DADF0" transform="translate(0,0)"/>
<path d="M0 0 C198.33 0 396.66 0 601 0 C601 197.34 601 394.68 601 598 C402.67 598 204.34 598 0 598 C0 400.66 0 203.32 0 0 Z M71.6796875 81.97119141 C61.3983266 94.38952121 54.68081267 109.40441798 51 125 C50.4923665 126.90110834 50.4923665 126.90110834 49.97447777 128.8406229 C48.61780382 135.00864946 48.71683413 141.12299853 48.73257446 147.41331482 C48.72883253 148.76119094 48.72422885 150.1090649 48.71884382 151.45693547 C48.7066648 155.14159165 48.70686825 158.82615668 48.70923257 162.51082838 C48.70964205 166.49266085 48.69858886 170.47446461 48.68911743 174.45628357 C48.67253275 182.25164267 48.66700897 190.04697151 48.66589268 197.84234678 C48.66494068 204.18446889 48.66082279 210.52658106 48.65449142 216.86870003 C48.63688328 234.87505912 48.62765149 252.88139442 48.62915237 270.88776218 C48.62923228 271.85767908 48.6293122 272.82759598 48.62939453 273.8269043 C48.62947629 274.79801484 48.62955805 275.76912538 48.62964229 276.76966352 C48.63045431 292.49003129 48.6113367 308.21030305 48.5831178 323.93064307 C48.55432896 340.09697914 48.54058091 356.26326849 48.54230535 372.42963082 C48.54296735 381.49568968 48.53755932 390.56164797 48.51594925 399.62768364 C48.49765797 407.3505955 48.49345463 415.07336126 48.5069681 422.7962855 C48.5134589 426.72972285 48.51375773 430.66288056 48.4962616 434.59629059 C48.41721649 453.54610891 48.38315456 471.99543417 56.8125 489.4375 C57.33505371 490.55656738 57.33505371 490.55656738 57.86816406 491.69824219 C69.10219527 515.26006379 87.90039971 533.58945051 112.0625 543.6875 C130.38245148 550.08375525 148.19882938 550.58918892 167.40319657 550.52289867 C171.33921356 550.51373882 175.27516337 550.5278713 179.21116638 550.53881836 C186.89591366 550.5564931 194.58050362 550.55281332 202.26525676 550.5411678 C208.51751348 550.53208986 214.76972648 550.53092819 221.02198792 550.53526306 C222.36288645 550.53618246 222.36288645 550.53618246 223.73087385 550.53712043 C225.54756082 550.53839949 227.36424778 550.53969634 229.18093473 550.5410108 C246.16807994 550.55238423 263.15513845 550.53935391 280.14226943 550.51780933 C294.68001336 550.49994131 309.21762947 550.50304633 323.75537109 550.52148438 C340.68671693 550.54294852 357.617987 550.5512859 374.54934454 550.53903532 C376.35890038 550.53776128 378.16845623 550.5365038 379.97801208 550.53526306 C380.86806963 550.53464596 381.75812717 550.53402886 382.67515615 550.53339306 C388.91118744 550.52995674 395.1471702 550.53573117 401.38319397 550.54518127 C408.99532599 550.55646451 416.60729329 550.55322958 424.21940672 550.5320583 C428.0942945 550.52163214 431.96890886 550.51727946 435.84379387 550.53065491 C466.50218341 550.62764992 495.28927349 546.26371203 519 525 C519.93070313 524.1853125 520.86140625 523.370625 521.8203125 522.53125 C530.53216774 514.57187176 536.3248285 505.26969874 542 495 C542.33821777 494.39526855 542.67643555 493.79053711 543.02490234 493.16748047 C546.12628304 487.55943709 548.5087987 482.28021941 549.63671875 475.95703125 C550.1461155 473.21286167 551.11849697 470.64450908 552 468 C552.77944124 464.01577616 553.12685509 460.24285129 553.13422108 456.18670177 C553.14090784 454.47067754 553.14090784 454.47067754 553.14772969 452.71998614 C553.14754533 451.47282818 553.14736097 450.22567023 553.14717102 448.9407196 C553.1504731 447.59472146 553.15419939 446.24872429 553.1583125 444.90272838 C553.1683019 441.20938718 553.17204436 437.51606223 553.17470181 433.82270944 C553.17861408 429.83676046 553.18819189 425.85082423 553.19691467 421.86488342 C553.21665509 412.24022705 553.22674312 402.61556966 553.23564246 392.9908981 C553.24003013 388.4529291 553.24539577 383.91496126 553.25063133 379.37699318 C553.26764269 364.28144797 553.2821347 349.18590347 553.28938007 334.09035015 C553.29128982 330.1750609 553.29321017 326.25977165 553.29516602 322.34448242 C553.29564976 321.37141306 553.2961335 320.3983437 553.2966319 319.3957874 C553.30492414 303.64869202 553.33024785 287.90167281 553.36274669 272.15461066 C553.39587647 255.96916949 553.41383425 239.78376694 553.41702431 223.5982917 C553.41918415 214.51824044 553.42785519 205.43830018 553.45348549 196.35828209 C553.47527366 188.62173538 553.4832033 180.88532663 553.47351871 173.14875271 C553.46899711 169.20735344 553.4707339 165.26623834 553.49028015 161.32487869 C553.64830514 127.56136775 547.2350018 99.53327875 523 75 C522.43023438 74.35804687 521.86046875 73.71609375 521.2734375 73.0546875 C512.16702497 63.01428394 499.44900479 56.76364979 487 52 C486.29875 51.69578125 485.5975 51.3915625 484.875 51.078125 C473.85982916 46.4251649 461.71845775 45.55404322 449.92089844 45.61904907 C448.57395425 45.61558094 447.22701291 45.61080872 445.88007736 45.60486734 C442.22593431 45.59248601 438.57203 45.59846804 434.91788673 45.60782599 C430.95871081 45.61466969 426.99957332 45.60410915 423.04040527 45.59588623 C415.30299998 45.58260295 407.56568239 45.58540239 399.82827377 45.59412415 C393.53537023 45.60092169 387.24249113 45.60180851 380.94958496 45.5985527 C380.05118039 45.598093 379.15277582 45.59763331 378.22714686 45.59715968 C376.40159384 45.59620042 374.57604082 45.59522778 372.7504878 45.5942419 C355.66477947 45.58570384 338.57911956 45.59549721 321.49341917 45.611643 C306.8588698 45.62504474 292.22439184 45.6227162 277.58984375 45.60888672 C260.56188915 45.59280285 243.53397691 45.58652767 226.50601578 45.59572351 C224.6874822 45.59667908 222.86894863 45.59762219 221.05041504 45.5985527 C219.70856836 45.59924694 219.70856836 45.59924694 218.33961368 45.59995521 C212.06017963 45.60253669 205.78077263 45.59819234 199.50134277 45.59111404 C191.84035125 45.58266758 184.17945184 45.58504495 176.51847076 45.60095628 C172.61579321 45.60879689 168.71326879 45.61200325 164.81059265 45.60200882 C161.22788111 45.59297311 157.64546255 45.59813813 154.06277704 45.61394148 C152.17475871 45.61880277 150.28671953 45.60917285 148.3987236 45.59876978 C118.44323008 45.80145844 91.51244811 59.91173228 71.6796875 81.97119141 Z " fill="#1F2937" transform="translate(0,0)"/>
<path d="M0 0 C198.33 0 396.66 0 601 0 C601 197.34 601 394.68 601 598 C402.67 598 204.34 598 0 598 C0 400.66 0 203.32 0 0 Z M34 53 C18.38494529 75.13779908 12.84769417 97.82784669 12.85282898 124.53219604 C12.84952417 126.0981226 12.84579732 127.66404831 12.8416875 129.22997296 C12.83172976 133.51276812 12.82796083 137.79554927 12.82529819 142.07835436 C12.82137661 146.70574054 12.81179977 151.33311582 12.80308533 155.960495 C12.78337472 167.12448236 12.77326232 178.28847056 12.76435754 189.45247096 C12.75996643 194.71876343 12.75460182 199.9850549 12.74936867 205.25134659 C12.73236303 222.77215046 12.71787021 240.29295372 12.71061993 257.81376457 C12.70871026 262.3546842 12.70678989 266.89560383 12.70483398 271.43652344 C12.70435024 272.56504644 12.7038665 273.69356945 12.7033681 274.85629012 C12.69507264 293.12627801 12.6697409 311.39620033 12.63725331 329.66615961 C12.60412262 348.45190023 12.58616581 367.23760757 12.58297569 386.02337754 C12.58081633 396.55942807 12.57215188 407.09538293 12.54651451 417.63140488 C12.52472539 426.60623337 12.51679733 435.58094293 12.52648129 444.55579488 C12.53100208 449.12743666 12.52927042 453.69883345 12.50971985 458.27044106 C12.10883073 489.90131324 12.10883073 489.90131324 20.8125 520.0625 C21.15796875 520.84359131 21.5034375 521.62468262 21.859375 522.42944336 C24.68876346 528.6692554 27.93844924 534.47052735 32 540 C32.59167969 540.81210937 33.18335937 541.62421875 33.79296875 542.4609375 C49.11327975 562.48790075 69.49386701 576.70713553 94 583 C95.18858833 583.36119526 95.18858833 583.36119526 96.40118855 583.72968739 C104.94692684 586.16349124 113.15170075 586.42051035 121.95820618 586.3742218 C123.54592329 586.3769672 125.13363858 586.38102337 126.72134942 586.38626546 C131.05495632 586.39679129 135.38835513 586.38876311 139.7219528 586.37751496 C144.40715293 586.3686358 149.09232693 586.37712725 153.77752686 586.38337708 C162.94511456 586.39284618 172.11262333 586.38628137 181.28020517 586.37411413 C191.96713226 586.36046148 202.65404076 586.36213494 213.34097435 586.36424746 C232.4176807 586.36743472 251.49434966 586.35578571 270.57104492 586.33618164 C289.0599888 586.31718669 307.54888886 586.31009235 326.0378418 586.31567383 C346.19157776 586.32173992 366.34529448 586.32153873 386.49902886 586.310188 C388.65069624 586.30898077 390.80236361 586.30777478 392.95403099 586.30657005 C394.54182887 586.30566475 394.54182887 586.30566475 396.16170347 586.30474115 C403.60127187 586.30087101 411.04083308 586.30125215 418.48040199 586.3031559 C427.55595344 586.30528425 436.63146663 586.30000569 445.70700733 586.28554235 C450.33264961 586.27832838 454.95823635 586.27419553 459.58388329 586.27878571 C463.82725295 586.2828939 468.07050847 586.27760739 472.31386092 586.26515963 C473.84000129 586.26225739 475.36615261 586.26262647 476.89229003 586.26680271 C508.79369095 586.3460999 535.01906182 576.15428573 558 554 C558.65871094 553.40445313 559.31742188 552.80890625 559.99609375 552.1953125 C569.5159059 543.35705734 575.64836831 531.65590987 581 520 C581.58394531 518.7934375 581.58394531 518.7934375 582.1796875 517.5625 C590.74957516 498.42972756 589.57746151 477.33499795 589.50823963 456.87705505 C589.49702602 452.25595082 589.50910646 447.63489501 589.51808167 443.01379395 C589.53194643 433.98516875 589.52450807 424.95668434 589.50940608 415.92806596 C589.49246053 405.39216808 589.49576702 394.85630444 589.49950016 384.32039713 C589.50536644 365.50841031 589.49125609 346.69649061 589.46655273 327.88452148 C589.44263907 309.67160527 589.43554876 291.45877871 589.44604492 273.24584961 C589.45748055 253.3674156 589.45935133 233.48902297 589.44494683 213.61058944 C589.44342114 211.48674548 589.44190079 209.36290151 589.44038582 207.23905754 C589.439628 206.19435054 589.43887019 205.14964353 589.43808941 204.07327874 C589.43336672 196.74668212 589.43518367 189.42010409 589.43945122 182.09350777 C589.44440213 173.15183276 589.43828634 164.21024214 589.41855692 155.26858635 C589.40875415 150.71516203 589.40350293 146.1618656 589.41144943 141.60843468 C589.47250561 102.31233838 584.84329536 69.72589147 556.75 40.3125 C542.55578032 26.63515667 525.96006662 18.15604689 507 13 C505.824375 12.608125 504.64875 12.21625 503.4375 11.8125 C493.28931879 9.41383899 482.61612372 9.85082386 472.24507141 9.85282898 C470.67940547 9.84952237 469.11374037 9.84579516 467.54807633 9.8416875 C463.27540959 9.83175091 459.00275689 9.82796434 454.73008025 9.82529819 C450.11028497 9.82137045 445.49050055 9.81179441 440.87071228 9.80308533 C429.73278969 9.78339633 418.59486629 9.77326704 407.45693067 9.76435754 C402.20270831 9.7599646 396.94848694 9.75460064 391.69426537 9.74936867 C374.21540823 9.73236845 356.73655169 9.71787406 339.25768757 9.71061993 C334.73014131 9.70871029 330.20259506 9.70678991 325.67504883 9.70483398 C324.54986051 9.70435024 323.42467219 9.7038665 322.26538726 9.7033681 C304.03553223 9.69506652 285.80574278 9.66972199 267.57591639 9.63725331 C248.8319374 9.60414252 230.08799173 9.58616777 211.34398335 9.58297569 C200.83097359 9.58081496 190.31805966 9.57212977 179.80507851 9.54651451 C170.85363524 9.52475303 161.90231111 9.51678406 152.95084438 9.52648129 C148.38968657 9.53100942 143.82877433 9.52922669 139.2676506 9.50971985 C135.08082725 9.49196935 130.89442646 9.4931809 126.70759787 9.50861714 C125.2042941 9.51097525 123.70096012 9.5067646 122.19770221 9.49478849 C87.27741754 9.23413033 55.81368408 26.06421934 34 53 Z " fill="#0A0E14" transform="translate(0,0)"/>
<path d="M0 0 C0.66435059 0.31598145 1.32870117 0.63196289 2.01318359 0.95751953 C11.53832325 5.51690624 19.56217144 10.36643911 27 18 C27.86625 18.804375 28.7325 19.60875 29.625 20.4375 C38.97195034 30.52236747 51 46.49955285 51 61 C43.68959849 61.20914865 36.3798483 61.36874714 29.06705379 61.46630955 C25.67065727 61.51315395 22.27631659 61.57660075 18.88110352 61.67895508 C14.97177346 61.79606158 11.0632558 61.83923063 7.15234375 61.87890625 C5.94166733 61.92535782 4.73099091 61.97180939 3.48362732 62.01966858 C-4.82762336 62.02462171 -4.82762336 62.02462171 -8.22531128 59.05514526 C-10.06420898 56.65600586 -10.06420898 56.65600586 -11.52830505 54.2674408 C-13.91903565 50.58404154 -17.35796951 48.35660797 -21 46 C-21.79148437 45.48566406 -22.58296875 44.97132813 -23.3984375 44.44140625 C-31.92006501 39.71996398 -41.50676245 39.55122877 -51 40 C-52.01191406 40.01933594 -53.02382813 40.03867188 -54.06640625 40.05859375 C-65.90550686 40.56796835 -75.24486431 45.19136547 -84 53 C-84.62648438 53.53367187 -85.25296875 54.06734375 -85.8984375 54.6171875 C-95.90782084 63.75238889 -101.12901984 77.97554557 -101.91015625 91.29296875 C-101.95462891 92.63294922 -101.95462891 92.63294922 -102 94 C-102.03996094 94.88300781 -102.07992187 95.76601563 -102.12109375 96.67578125 C-102.56995113 114.92051378 -97.85125579 133.27572289 -85.3125 146.859375 C-81.28889558 150.58392774 -76.74988481 153.30153603 -72 156 C-71.01 156.598125 -70.02 157.19625 -69 157.8125 C-60.97841003 160.9877127 -52.84099997 161.19436483 -44.3125 161.25 C-43.42167725 161.25926514 -42.53085449 161.26853027 -41.61303711 161.27807617 C-27.47258848 161.21099749 -14.09883249 156.00850305 -4 146 C0.24381454 140.83280604 7 131.86143879 7 125 C-24.68 124.505 -24.68 124.505 -57 124 C-57 111.46 -57 98.92 -57 86 C-20.04 86 16.92 86 55 86 C55 149.60067114 55 149.60067114 33 174 C32.25234375 174.84175781 31.5046875 175.68351563 30.734375 176.55078125 C12.13509375 196.35100947 -15.59876345 207.06910278 -42.42578125 208.21875 C-57.07713004 208.6167854 -71.15741613 206.84232779 -85 202 C-86.11503906 201.65839844 -87.23007812 201.31679688 -88.37890625 200.96484375 C-111.30229531 193.56748016 -131.09510529 176.29319697 -142.35375977 155.02856445 C-156.74810805 126.43601367 -159.68726107 92.37862931 -150.32421875 61.609375 C-147.81413147 54.76772116 -144.52051677 48.37029513 -141 42 C-140.45472656 41.01 -139.90945313 40.02 -139.34765625 39 C-134.67810634 31.1451092 -128.59702498 24.29670518 -122 18 C-121.34 18 -120.68 18 -120 18 C-120 17.34 -120 16.68 -120 16 C-106.72969413 4.54813735 -90.02819952 -3.18551471 -73 -7 C-71.65421875 -7.33451172 -71.65421875 -7.33451172 -70.28125 -7.67578125 C-48.3393158 -12.31006908 -20.17518928 -9.97339546 0 0 Z " fill="#1F2A38" transform="translate(444,208)"/>
<path d="M0 0 C2.06255024 -0.00217722 4.12455637 -0.02035115 6.18701172 -0.03930664 C28.21129896 -0.13290013 48.16245173 6.50582646 64.83154297 21.18530273 C74.99855559 31.3174371 81.67028495 45.86153445 82.01904297 60.24780273 C81.83154297 63.18530273 81.83154297 63.18530273 80.83154297 64.18530273 C79.11288888 64.27889463 77.39038553 64.30274884 75.66918945 64.29882812 C74.56812363 64.29875259 73.4670578 64.29867706 72.33262634 64.29859924 C71.13472977 64.29343796 69.93683319 64.28827667 68.70263672 64.28295898 C67.4832692 64.28154404 66.26390167 64.28012909 65.00758362 64.27867126 C61.09471227 64.2730524 57.18189716 64.2604967 53.26904297 64.24780273 C50.6238615 64.24279016 47.97867914 64.23822684 45.33349609 64.23413086 C38.83282571 64.22307685 32.33218836 64.20632037 25.83154297 64.18530273 C25.63165771 63.50113281 25.43177246 62.81696289 25.22583008 62.11206055 C24.96036377 61.21326172 24.69489746 60.31446289 24.42138672 59.38842773 C24.15962646 58.49800781 23.89786621 57.60758789 23.62817383 56.69018555 C21.69340072 50.60659006 18.85554753 47.90036453 13.39404297 44.81030273 C6.02711282 41.40534355 -1.03816228 40.54749727 -8.84814453 43.04077148 C-13.59375471 45.32022031 -16.55912796 48.04757101 -18.58642578 52.93530273 C-19.89888422 58.00896759 -19.71880997 62.93385889 -18.48095703 67.99780273 C-15.06692216 73.68786086 -10.27477544 76.49763743 -4.48095703 79.24780273 C-3.41204224 79.76648926 -3.41204224 79.76648926 -2.3215332 80.2956543 C4.98095169 83.8032318 12.25128705 86.74128822 20.01904297 89.06030273 C27.48461524 91.31307191 34.66937071 94.12198486 41.83154297 97.18530273 C42.53923828 97.48452637 43.24693359 97.78375 43.97607422 98.09204102 C59.45061442 104.71269798 73.48438367 113.69460697 80.76513672 129.50561523 C86.79157331 144.64896871 86.40699575 159.97652326 80.83154297 175.18530273 C72.68609382 193.96626061 58.14150348 205.54846542 39.46044922 213.15014648 C16.13168761 221.50857979 -13.79865788 219.43750807 -36.41845703 209.74780273 C-38.01826201 208.92489985 -39.60287301 208.0715825 -41.16845703 207.18530273 C-42.43302734 206.50854492 -42.43302734 206.50854492 -43.72314453 205.81811523 C-59.29962205 197.05930569 -68.85093142 184.06369877 -74.16845703 167.18530273 C-75.16845703 163.18530273 -75.16845703 163.18530273 -75.16845703 152.18530273 C-57.01845703 152.18530273 -38.86845703 152.18530273 -20.16845703 152.18530273 C-18.84845703 156.47530273 -17.52845703 160.76530273 -16.16845703 165.18530273 C-11.95624487 170.53157202 -7.95156385 173.98390607 -1.16845703 175.18530273 C8.18007401 176.11597305 16.05881838 175.84806616 23.83154297 170.18530273 C28.00422877 166.01261694 29.63228463 162.21109587 30.20654297 156.37280273 C30.01801707 150.81128871 28.09340727 146.35709279 24.06591797 142.48999023 C17.82800638 137.60280754 11.16671995 134.58056067 3.67504883 132.12011719 C-1.82982322 130.31036746 -7.31871174 128.45352699 -12.80517578 126.58886719 C-14.20597602 126.11421988 -15.60766348 125.64218242 -17.01025391 125.17285156 C-37.41600477 118.33979907 -59.08777505 109.98918643 -69.95361328 90.02124023 C-77.06541829 73.41940603 -77.41273368 54.96390211 -70.98095703 38.12280273 C-64.53011825 23.45839597 -51.69949135 12.56539077 -37.16845703 6.18530273 C-24.88208825 1.58687957 -13.09638052 -0.00154402 0 0 Z " fill="#1F2A38" transform="translate(181.16845703125,198.814697265625)"/>
</svg>
